<svg xmlns="http://www.w3.org/2000/svg" viewBox="0 0 86.47 86.47"><defs><style>.cls-1{fill:#fff;}.cls-2{fill:none;}.cls-3{fill:#054172;}</style></defs><g id="Layer_2" data-name="Layer 2"><g id="Layer_2-2" data-name="Layer 2"><circle class="cls-1" cx="43.24" cy="43.24" r="43.24"/><g id="Oilfiled_Icon" data-name="Oilfiled Icon"><path class="cls-2" d="M59.37,43.64a2,2,0,0,0,2.05-2v-9a2.05,2.05,0,0,0-2.05-2h-2V43.64Z"/><path class="cls-3" d="M59.37,28.92h-2v1.63h2a2.05,2.05,0,0,1,2.05,2v9a2,2,0,0,1-2.05,2h-2v1.64h2a3.68,3.68,0,0,0,3.68-3.67v-9A3.68,3.68,0,0,0,59.37,28.92Z"/><path class="cls-3" d="M30.33,26.46H26.24a.82.82,0,0,0-.82.82V64.92a.82.82,0,0,0,.82.82h4.09V26.46Z"/><path class="cls-3" d="M57.33,30.55V27.28a.82.82,0,0,0-.82-.82H36.87v-.82H30.33v.82H32V65.74H56.51a.82.82,0,0,0,.82-.82V30.55ZM41.58,59.81a.82.82,0,0,1-.62.28.8.8,0,0,1-.61-.28c-.52-.59-5.11-5.87-5.11-8.8a5.73,5.73,0,1,1,11.45,0C46.69,53.94,42.1,59.22,41.58,59.81Zm6.54-16.89a.8.8,0,0,1-.61.28.78.78,0,0,1-.61-.28c-.6-.67-3.57-4.13-3.57-6.19a4.18,4.18,0,0,1,8.35,0C51.68,38.79,48.72,42.25,48.12,42.92Z"/><polygon class="cls-3" points="40.96 25.64 40.96 20.73 26.23 20.73 26.23 25.64 30.33 25.64 36.87 25.64 40.96 25.64"/><polygon class="cls-1" points="31.96 26.46 30.33 26.46 30.33 28.1 30.33 65.73 31.96 65.73 31.96 26.46"/><path class="cls-1" d="M41,45.28A5.73,5.73,0,0,0,35.24,51c0,2.93,4.59,8.21,5.11,8.8a.8.8,0,0,0,.61.28.82.82,0,0,0,.62-.28c.52-.59,5.11-5.87,5.11-8.8A5.74,5.74,0,0,0,41,45.28Z"/><path class="cls-1" d="M47.51,32.56a4.18,4.18,0,0,0-4.18,4.17c0,2.06,3,5.52,3.57,6.19a.78.78,0,0,0,.61.28.8.8,0,0,0,.61-.28c.6-.67,3.56-4.13,3.56-6.19A4.17,4.17,0,0,0,47.51,32.56Z"/></g></g></g></svg>