<svg xmlns="http://www.w3.org/2000/svg" viewBox="0 0 86.47 86.47"><defs><style>.cls-1{fill:#fff;}.cls-2{fill:#054172;}</style></defs><g id="Layer_2" data-name="Layer 2"><g id="Layer_2-2" data-name="Layer 2"><circle class="cls-1" cx="43.24" cy="43.24" r="43.24"/><g id="Trenching_Icon" data-name="Trenching Icon"><polygon class="cls-2" points="32.41 48.13 32.41 63.88 42.8 69.23 53.2 63.88 53.2 48.13 32.41 48.13"/><polygon class="cls-2" points="38.47 48.13 38.47 56.72 42.8 59.64 47.16 56.72 47.16 48.13 38.47 48.13"/><rect class="cls-2" x="40.05" y="27.58" width="5.52" height="20.53"/><path class="cls-2" d="M49.56,19.24H36.05a1.24,1.24,0,0,0-1.24,1.23v7.08a1.25,1.25,0,0,0,1.24,1.24h4v2.82h5.53V28.79h4a1.25,1.25,0,0,0,1.24-1.24V20.47A1.23,1.23,0,0,0,49.56,19.24Zm-1.23,7.08h-11V21.7h11Z"/><rect class="cls-2" x="37.86" y="19.24" width="9.88" height="2.49"/></g></g></g></svg>