<svg xmlns="http://www.w3.org/2000/svg" viewBox="0 0 86.47 86.47"><defs><style>.cls-1{fill:#fff;}.cls-2,.cls-3{fill:#054172;}.cls-3{stroke:#fff;stroke-miterlimit:10;stroke-width:0.88px;}</style></defs><g id="Layer_2" data-name="Layer 2"><g id="Layer_2-2" data-name="Layer 2"><circle class="cls-1" cx="43.24" cy="43.24" r="43.24"/><g id="Hydrovac_Icon" data-name="Hydrovac Icon"><path class="cls-1" d="M66.61,42.07H56.09v7.44H68.94V45.79C68.94,45,67.64,43.23,66.61,42.07Z"/><rect class="cls-1" x="24.63" y="38.02" width="4.82" height="1.35"/><rect class="cls-1" x="24.63" y="44.78" width="4.82" height="1.35"/><rect class="cls-1" x="24.63" y="41.4" width="4.82" height="1.35"/><rect class="cls-1" x="24.63" y="48.16" width="4.82" height="1.35"/><rect class="cls-1" x="61.5" y="51.54" width="2.71" height="1.35"/><path class="cls-2" d="M54.73,59V41.4a.68.68,0,0,1,.68-.68h.68V37.34A4.74,4.74,0,0,0,52,32.66a5.05,5.05,0,0,0-.67-.06H37.14a5.05,5.05,0,0,0-.67.06C34.18,33,24.63,35,24.63,37.34V38h4.82v1.35H24.63v2h4.82v1.35H24.63v2h4.82v1.35H24.63v2h4.82v1.35H24.63V59a.68.68,0,0,0,.68.68H27.4a3.82,3.82,0,0,1-.06-.68,4.06,4.06,0,0,1,8.12,0,5.05,5.05,0,0,1-.06.68h20A.68.68,0,0,1,54.73,59Z"/><path class="cls-3" d="M31.4,54.92A4.07,4.07,0,0,0,27.34,59a3.82,3.82,0,0,0,.06.68,4.06,4.06,0,0,0,8,0,5.05,5.05,0,0,0,.06-.68A4.07,4.07,0,0,0,31.4,54.92Z"/><path class="cls-2" d="M54.73,41.4v8.79a.69.69,0,0,1,.68-.68h.68V42.07H66.61c1,1.16,2.33,3,2.33,3.72v3.72h1.35V45.79c0-1.64-2.4-4.33-2.88-4.85a.68.68,0,0,0-.5-.22H55.41A.68.68,0,0,0,54.73,41.4Z"/><path class="cls-2" d="M71,49.51H55.41a.69.69,0,0,0-.68.68V59a.68.68,0,0,0,.68.68h4.12a3.82,3.82,0,0,1-.06-.68,4.06,4.06,0,1,1,8.11,0,3.82,3.82,0,0,1-.06.68H71a.67.67,0,0,0,.67-.68V50.19A.68.68,0,0,0,71,49.51ZM64.2,52.9H61.5V51.54h2.7Z"/><path class="cls-3" d="M63.53,54.92A4.07,4.07,0,0,0,59.47,59a3.82,3.82,0,0,0,.06.68,4.05,4.05,0,0,0,8,0,3.82,3.82,0,0,0,.06-.68A4.07,4.07,0,0,0,63.53,54.92Z"/><path class="cls-2" d="M39.3,27.19,18.21,23.47a2.88,2.88,0,0,0-3.38,2.84V59.66h4.06V29.37a1.17,1.17,0,0,1,1.37-1.15l14.26,2.17a2.29,2.29,0,0,1,1.95,2.27h0a5.05,5.05,0,0,1,.67-.06h4.57V30.07A2.92,2.92,0,0,0,39.3,27.19Z"/></g></g></g></svg>